<?xml version="1.0" standalone="no"?><!DOCTYPE svg PUBLIC "-//W3C//DTD SVG 1.1//EN" "http://www.w3.org/Graphics/SVG/1.1/DTD/svg11.dtd"><svg t="1530689833893" class="icon" style="" viewBox="0 0 1024 1024" version="1.1" xmlns="http://www.w3.org/2000/svg" p-id="1938" xmlns:xlink="http://www.w3.org/1999/xlink" width="16" height="16"><defs><style type="text/css"></style></defs><path d="M615.931582 957.262016 408.937205 799.37201 408.937205 514.733251 115.089713 147.84421c-14.329357-17.949814-14.240329-40.121789 0.213871-57.886385 12.163017-15.056927 32.302707-23.723308 55.210439-23.723308l683.154102-0.078795c22.89136 0 43.032072 8.671497 55.259558 23.788799 14.43885 17.799388 14.521738 39.96727 0.198521 57.830103L615.931582 514.022053 615.931582 957.262016zM448.901405 779.592524l127.065977 96.921423L575.967382 499.994572l301.971519-377.206014c2.467191-3.078105 2.451842-4.584412-0.064468-7.689123-4.622274-5.713119-13.437034-8.977465-24.202215-8.977465L170.517093 106.199741c-10.777461 0-19.586081 3.254114-24.169469 8.927323-2.569522 3.1569-2.569522 4.597715-0.045025 7.759731l302.598806 377.815905L448.901405 779.592524z" p-id="1939" fill="#7e8186"></path></svg>