<?xml version="1.0" encoding="UTF-8"?>
<svg width="31px" height="31px" viewBox="0 0 31 31" version="1.1" xmlns="http://www.w3.org/2000/svg" xmlns:xlink="http://www.w3.org/1999/xlink">
    <!-- Generator: Sketch 50 (54983) - http://www.bohemiancoding.com/sketch -->
    <title>Icon Copy 2</title>
    <desc>Created with Sketch.</desc>
    <defs>
        <linearGradient x1="50%" y1="0%" x2="50%" y2="100%" id="linearGradient-1">
            <stop stop-color="#00C2FF" offset="0%"></stop>
            <stop stop-color="#0074FB" offset="54.8861994%"></stop>
        </linearGradient>
        <linearGradient x1="50%" y1="0%" x2="50%" y2="100%" id="linearGradient-2">
            <stop stop-color="#FFFFFF" offset="0%"></stop>
            <stop stop-color="#0074FB" offset="100%"></stop>
        </linearGradient>
        <linearGradient x1="50%" y1="0%" x2="50%" y2="100%" id="linearGradient-3">
            <stop stop-color="#00C2FF" offset="0%"></stop>
            <stop stop-color="#2A8CFF" offset="100%"></stop>
        </linearGradient>
    </defs>
    <g id="Symbols" stroke="none" stroke-width="1" fill="none" fill-rule="evenodd">
        <g id="Overrides/Cell/Cell-Icon/Folder-Gradient-2" transform="translate(1.000000, 1.000000)">
            <rect id="Icon-Copy-2" stroke="#DEDEDE" stroke-width="0.3" x="0" y="0" width="29" height="29" rx="6.5"></rect>
            <g id="Group-2" transform="translate(4.000000, 6.000000)">
                <path d="M1.2,0.584758539 L5.01345398,0.584758539 C5.4353187,0.584758539 5.83029424,0.79189307 6.07016761,1.1389242 L6.15502696,1.26169245 C6.34175948,1.53184331 6.64923329,1.69308985 6.97763931,1.69308985 L20,1.69308985 C20.5522847,1.69308985 21,2.1408051 21,2.69308985 L21,12 C21,12.5522847 20.5522847,13 20,13 L1,13 C0.44771525,13 -1.0020365e-13,12.5522847 -1.0125234e-13,12 L-1.03250741e-13,1.78475854 C-1.03331904e-13,1.12201684 0.5372583,0.584758539 1.2,0.584758539 Z" id="Rectangle-3-Copy" fill="url(#linearGradient-1)"></path>
                <rect id="Rectangle-3-Copy-2" fill="url(#linearGradient-2)" x="1" y="3.20000076" width="19" height="13" rx="0.5"></rect>
                <rect id="Rectangle-3" fill="url(#linearGradient-3)" x="0" y="4" width="21" height="13" rx="1"></rect>
            </g>
        </g>
    </g>
</svg>