<?xml version="1.0" encoding="UTF-8"?>
<svg width="45px" height="45px" viewBox="0 0 45 45" version="1.1" xmlns="http://www.w3.org/2000/svg" xmlns:xlink="http://www.w3.org/1999/xlink">
    <!-- Generator: Sketch 50 (54983) - http://www.bohemiancoding.com/sketch -->
    <title>D</title>
    <desc>Created with Sketch.</desc>
    <defs></defs>
    <g id="Symbols" stroke="none" stroke-width="1" fill="none" fill-rule="evenodd">
        <g id="D">
            <circle id="Oval" fill="#1F89F2" cx="22.5" cy="22.5" r="22.5"></circle>
            <path d="M16.8089314,15.006 L22.2689314,15.006 C24.6839314,15.006 26.5109314,15.678 27.7709314,17.043 C28.9469314,18.303 29.5349314,20.13 29.5349314,22.503 C29.5349314,24.855 28.9259314,26.682 27.7289314,27.984 C26.4689314,29.328 24.6419314,30 22.2269314,30 L16.8089314,30 L16.8089314,15.006 Z M19.0979314,16.959 L19.0979314,28.047 L21.8069314,28.047 C23.6969314,28.047 25.1039314,27.585 25.9859314,26.682 C26.8469314,25.779 27.2879314,24.393 27.2879314,22.503 C27.2879314,20.571 26.8469314,19.185 26.0069314,18.303 C25.1249314,17.4 23.7389314,16.959 21.8489314,16.959 L19.0979314,16.959 Z" fill="#FFFFFF"></path>
        </g>
    </g>
</svg>