<?xml version="1.0" encoding="UTF-8"?>
<svg width="72px" height="116px" viewBox="0 0 72 116" version="1.1" xmlns="http://www.w3.org/2000/svg" xmlns:xlink="http://www.w3.org/1999/xlink">
    <!-- Generator: Sketch 50 (54983) - http://www.bohemiancoding.com/sketch -->
    <title>Group</title>
    <desc>Created with Sketch.</desc>
    <defs></defs>
    <g id="Page-1" stroke="none" stroke-width="1" fill="none" fill-rule="evenodd">
        <g id="Artboard-Copy-8" transform="translate(-151.000000, -300.000000)">
            <g id="Group" transform="translate(151.000000, 301.000000)">
                <path d="M9.018,104.63 L9.018,106.016 L6.57,106.232 L6.57,107.492 L4.986,107.492 L4.986,106.358 C3.852,106.43 2.682,106.52 1.458,106.592 L1.26,105.116 C2.574,105.062 3.816,105.008 4.986,104.936 L4.986,103.784 L1.836,103.784 L1.476,102.398 C1.89,101.93 2.286,101.354 2.682,100.67 L0.99,100.67 L0.99,99.158 L3.402,99.158 C3.546,98.798 3.672,98.438 3.816,98.078 L5.508,98.348 C5.4,98.618 5.31,98.888 5.202,99.158 L9.36,99.158 L9.36,100.67 L4.5,100.67 C4.176,101.282 3.816,101.858 3.456,102.38 L4.986,102.38 L4.986,101.318 L6.57,101.318 L6.57,102.38 L9.198,102.38 L9.198,103.784 L6.57,103.784 L6.57,104.828 C7.434,104.756 8.244,104.702 9.018,104.63 Z M11.736,103.802 C11.52,105.26 11.016,106.538 10.26,107.654 L9.072,106.412 C9.828,105.296 10.242,103.964 10.278,102.434 L10.278,99.464 C12.618,99.248 14.382,98.852 15.57,98.294 L16.686,99.554 C15.372,100.13 13.752,100.544 11.844,100.76 L11.844,102.308 L17.046,102.308 L17.046,103.802 L15.318,103.802 L15.318,107.51 L13.68,107.51 L13.68,103.802 L11.736,103.802 Z M15.21,107.906 L15.21,114.854 L13.482,114.854 L13.482,114.224 L4.734,114.224 L4.734,114.854 L3.006,114.854 L3.006,107.906 L15.21,107.906 Z M4.734,112.766 L13.482,112.766 L13.482,111.704 L4.734,111.704 L4.734,112.766 Z M4.734,110.354 L13.482,110.354 L13.482,109.328 L4.734,109.328 L4.734,110.354 Z M20.4357074,99.05 L33.5397074,99.05 L33.5397074,100.724 L27.2037074,100.724 L27.2037074,101.804 C27.1677074,102.812 27.0957074,103.748 26.9877074,104.648 L34.9617074,104.648 L34.9617074,106.304 L29.5257074,106.304 L29.5257074,112.082 C29.5257074,112.658 29.7957074,112.964 30.3537074,112.964 L32.3877074,112.964 C32.7477074,112.964 33.0177074,112.838 33.1977074,112.586 C33.3957074,112.334 33.5397074,111.506 33.6117074,110.138 L35.2137074,110.66 C35.0697074,112.55 34.7817074,113.684 34.3857074,114.044 C34.0257074,114.386 33.4677074,114.566 32.7117074,114.566 L29.8317074,114.566 C28.4997074,114.566 27.8337074,113.846 27.8337074,112.442 L27.8337074,106.304 L26.7177074,106.304 C26.3937074,107.852 25.9437074,109.184 25.3497074,110.318 C24.2337074,112.28 22.4337074,113.792 19.9497074,114.854 L18.9957074,113.324 C21.4797074,112.19 23.1537074,110.75 24.0357074,109.022 C24.4137074,108.194 24.7197074,107.294 24.9357074,106.304 L19.2657074,106.304 L19.2657074,104.648 L25.2417074,104.648 C25.3497074,103.748 25.4217074,102.812 25.4577074,101.804 L25.4577074,100.724 L20.4357074,100.724 L20.4357074,99.05 Z M48.2694148,102.488 C48.1974148,102.776 48.1254148,103.046 48.0534148,103.298 C48.4494148,105.17 48.9714148,106.808 49.6014148,108.212 C50.1954148,106.556 50.5194148,104.648 50.5914148,102.488 L48.2694148,102.488 Z M48.8274148,109.958 C48.2154148,108.716 47.6754148,107.312 47.2254148,105.746 C46.9374148,106.394 46.6494148,107.006 46.3254148,107.546 L45.2454148,106.214 C46.2534148,104.234 46.9374148,101.57 47.2974148,98.222 L48.9714148,98.51 C48.8634148,99.338 48.7554148,100.112 48.6114148,100.85 L53.1834148,100.85 L53.1834148,102.488 L52.1394148,102.488 C52.0314148,105.422 51.4914148,107.924 50.5194148,109.994 C51.4194148,111.488 52.4634148,112.658 53.6874148,113.486 L52.7334148,114.872 C51.5634148,114.026 50.5554148,112.91 49.6914148,111.524 C48.8454148,112.838 47.7834148,113.954 46.5234148,114.854 L45.6414148,113.432 C46.9734148,112.532 48.0354148,111.38 48.8274148,109.958 Z M40.2954148,106.592 L41.8974148,106.79 C41.7894148,107.078 41.6994148,107.348 41.5914148,107.636 L45.2634148,107.636 L45.2634148,109.022 C44.9394148,110.102 44.3634148,111.056 43.5354148,111.884 C44.2734148,112.208 44.9934148,112.568 45.6774148,112.928 L44.7594148,114.26 C44.0574148,113.828 43.2114148,113.396 42.2214148,112.946 C41.0334148,113.72 39.5394148,114.332 37.7574148,114.8 L36.9654148,113.396 C38.3154148,113.072 39.4854148,112.676 40.4574148,112.172 C39.7194148,111.866 38.9274148,111.56 38.0994148,111.236 C38.5314148,110.48 38.9274148,109.778 39.2694148,109.094 L37.3794148,109.094 L37.3794148,107.636 L39.9174148,107.636 C40.0614148,107.276 40.1874148,106.916 40.2954148,106.592 Z M41.9694148,111.236 C42.7614148,110.606 43.3374148,109.886 43.7334148,109.094 L40.9434148,109.094 C40.6914148,109.598 40.4214148,110.084 40.1334148,110.552 C40.7634148,110.768 41.3754148,110.984 41.9694148,111.236 Z M39.0534148,98.51 C39.4494148,99.194 39.7914148,99.914 40.0974148,100.706 L38.8734148,101.264 C38.5134148,100.4 38.1174148,99.626 37.7034148,98.96 L39.0534148,98.51 Z M44.2194148,98.492 L45.4254148,99.068 C45.0654148,99.824 44.6154148,100.58 44.0574148,101.318 L42.8694148,100.706 C43.4454148,99.95 43.8954148,99.212 44.2194148,98.492 Z M37.4154148,101.57 L40.8174148,101.57 L40.8174148,98.258 L42.3834148,98.258 L42.3834148,101.57 L45.5154148,101.57 L45.5154148,103.064 L42.3834148,103.064 L42.3834148,103.154 C43.3374148,103.55 44.3094148,104.018 45.2994148,104.54 L44.3994148,105.89 C43.6074148,105.26 42.9414148,104.756 42.3834148,104.396 L42.3834148,106.412 L40.8174148,106.412 L40.8174148,103.37 C40.2234148,104.666 39.2334148,105.8 37.8474148,106.772 L37.0014148,105.386 C38.2614148,104.666 39.1434148,103.892 39.6834148,103.064 L37.4154148,103.064 L37.4154148,101.57 Z M57.3651222,114.692 L55.8351222,114.692 L55.4751222,113.072 C55.9251222,113.144 56.3571222,113.198 56.7891222,113.198 C57.1851222,113.198 57.4011222,112.964 57.4011222,112.496 L57.4011222,108.626 C56.7531222,108.86 56.1231222,109.076 55.4931222,109.292 L55.0611222,107.6 C55.8531222,107.42 56.6271222,107.186 57.4011222,106.916 L57.4011222,103.19 L55.3851222,103.19 L55.3851222,101.552 L57.4011222,101.552 L57.4011222,98.294 L59.0571222,98.294 L59.0571222,101.552 L60.6411222,101.552 L60.6411222,103.19 L59.0571222,103.19 L59.0571222,106.268 C59.5611222,106.034 60.0831222,105.782 60.5871222,105.512 L60.5871222,107.186 C60.0651222,107.438 59.5611222,107.69 59.0571222,107.924 L59.0571222,112.91 C59.0571222,114.098 58.4811222,114.692 57.3651222,114.692 Z M62.9631222,106.88 C62.7291222,109.904 62.0451222,112.568 60.8931222,114.872 L59.5611222,113.684 C60.7671222,111.362 61.3791222,108.374 61.3971222,104.72 L61.3971222,98.852 L71.1351222,98.852 L71.1351222,103.514 L67.8591222,103.514 L67.8591222,105.314 L71.5671222,105.314 L71.5671222,106.88 L67.8591222,106.88 L67.8591222,108.734 L70.7571222,108.734 L70.7571222,114.854 L69.1731222,114.854 L69.1731222,114.08 L64.9071222,114.08 L64.9071222,114.854 L63.3231222,114.854 L63.3231222,108.734 L66.2031222,108.734 L66.2031222,106.88 L62.9631222,106.88 Z M66.2031222,103.514 L63.0531222,103.514 L63.0531222,104.72 C63.0531222,104.918 63.0351222,105.116 63.0351222,105.314 L66.2031222,105.314 L66.2031222,103.514 Z M64.9071222,112.568 L69.1731222,112.568 L69.1731222,110.246 L64.9071222,110.246 L64.9071222,112.568 Z M69.4791222,100.418 L63.0531222,100.418 L63.0531222,101.984 L69.4791222,101.984 L69.4791222,100.418 Z" id="暂无数据" fill="#CFD3D6"></path>
                <g id="file-(1)-copy" transform="translate(20.000000, 0.000000)" stroke="#DEE1E3" stroke-linecap="round" stroke-linejoin="round" stroke-width="2">
                    <path d="M33.9276593,58 C34.943735,58 36.4678486,58 38.5,58 C41.5375661,58 44,55.4032515 44,52.2 L44,20.3 L24.75,0 L5.5,0 C2.46243388,0 0,2.59674845 0,5.8 C0,6.81291268 0,7.57259718 0,8.07905352" id="Shape"></path>
                    <path d="M24.6666667,0 L24.6666667,18.4502792 M26.7603246,20.2650602 L44,20.2650602" id="Shape"></path>
                </g>
                <g id="file-(1)" transform="translate(10.000000, 8.000000)" stroke="#DEE1E3" stroke-linecap="round" stroke-linejoin="round" stroke-width="2">
                    <path d="M24.75,0 L5.5,0 C2.46243388,0 0,2.59674845 0,5.8 L0,52.2 C0,55.4032515 2.46243388,58 5.5,58 L38.5,58 C41.5375661,58 44,55.4032515 44,52.2 L44,20.3 L24.75,0 Z" id="Shape"></path>
                    <polyline id="Shape" points="24.6666667 0 24.6666667 20.2650602 44 20.2650602"></polyline>
                </g>
            </g>
        </g>
    </g>
</svg>