<?xml version="1.0" encoding="UTF-8"?>
<svg width="25px" height="22px" viewBox="0 0 25 22" version="1.1" xmlns="http://www.w3.org/2000/svg" xmlns:xlink="http://www.w3.org/1999/xlink">
    <!-- Generator: Sketch 50 (54983) - http://www.bohemiancoding.com/sketch -->
    <title></title>
    <desc>Created with Sketch.</desc>
    <defs></defs>
    <g id="Page-1" stroke="none" stroke-width="1" fill="none" fill-rule="evenodd">
        <path d="M24.6582031,0.134937238 C24.8657227,0.278870293 25,0.518758717 25,0.770641562 L25,17.6587866 C25,17.9706416 24.8046875,18.2585077 24.5117188,18.3664575 L16.6992188,21.4370293 C16.5039062,21.5209902 16.3085938,21.5209902 16.1132812,21.4370293 L8.59375,18.4864017 L1.07421875,21.4370293 C0.9765625,21.485007 0.87890625,21.4970014 0.78125,21.4970014 C0.622558594,21.4970014 0.476074219,21.4490237 0.341796875,21.3650628 C0.134277344,21.2211297 0,20.9812413 0,20.7293584 L0,3.84121339 C0,3.52935844 0.1953125,3.24149233 0.48828125,3.13354254 L8.30078125,0.0629707113 C8.49609375,-0.0209902371 8.69140625,-0.0209902371 8.88671875,0.0629707113 L16.40625,3.01359833 L23.9257812,0.0629707113 C24.1699219,-0.0329846583 24.4384766,-0.0089958159 24.6582031,0.134937238 Z M8.86558277,1.20000005 L8.86558277,17.5002427 L16.2584487,20.4522551 L16.2584487,4.1520125 L8.86558277,1.20000005 Z M1.06200204,4.04473642 L1.06200204,20.3449791 L8.04415322,17.5598195 L8.04415322,1.25957685 L1.06200204,4.04473642 Z M24.0620295,17.6002426 L24.0620295,1.29999995 L17.0798783,4.08515952 L17.0798783,20.3854022 L24.0620295,17.6002426 Z" id="" fill="#8A8A8F"></path>
    </g>
</svg>