<?xml version="1.0" encoding="UTF-8"?>
<svg width="30px" height="37px" viewBox="0 0 30 37" version="1.1" xmlns="http://www.w3.org/2000/svg" xmlns:xlink="http://www.w3.org/1999/xlink">
    <!-- Generator: Sketch 50 (54983) - http://www.bohemiancoding.com/sketch -->
    <title>Group 3 Copy</title>
    <desc>Created with Sketch.</desc>
    <defs>
        <linearGradient x1="50%" y1="41.0419308%" x2="50%" y2="224.845204%" id="linearGradient-1">
            <stop stop-color="#000000" stop-opacity="0" offset="0%"></stop>
            <stop stop-color="#000000" offset="100%"></stop>
        </linearGradient>
    </defs>
    <g id="Symbols" stroke="none" stroke-width="1" fill="none" fill-rule="evenodd">
        <g id="Group-3-Copy">
            <g id="Pin">
                <circle id="Dot" fill="#2096F3" cx="15" cy="35.5" r="1.5"></circle>
                <path d="M12.6065626,32.0983713 C5.45992026,31.594827 0,28.8730328 0,25.5909091 C0,21.9508505 6.71572875,19 15,19 C23.2842712,19 30,21.9508505 30,25.5909091 C30,28.8635895 24.5714531,31.5791601 17.4550823,32.0939699 C15.3734268,32.5205742 15,33.5 15,33.5 C15,33.5 14.0526611,32.3208362 12.6065626,32.0983713 Z" id="Shadow" fill-opacity="0.3" fill="url(#linearGradient-1)"></path>
                <path d="M12.6065626,29.8100864 C5.45992026,28.6640891 0,22.4696609 0,15 C0,6.71572875 6.71572875,0 15,0 C23.2842712,0 30,6.71572875 30,15 C30,22.4481692 24.5714531,28.6284333 17.4550823,29.8000694 C15.3734268,30.7709619 15,33 15,33 C15,33 14.0526611,30.3163857 12.6065626,29.8100864 Z" id="Oval" fill="#2096F3"></path>
            </g>
            <circle id="Oval-5" fill="#FFFFFF" cx="15" cy="15.5" r="3.5"></circle>
        </g>
    </g>
</svg>