<?xml version="1.0" standalone="no"?><!DOCTYPE svg PUBLIC "-//W3C//DTD SVG 1.1//EN" "http://www.w3.org/Graphics/SVG/1.1/DTD/svg11.dtd"><svg t="1529991557818" class="icon" style="" viewBox="0 0 1194 1024" version="1.1" xmlns="http://www.w3.org/2000/svg" p-id="3365" xmlns:xlink="http://www.w3.org/1999/xlink" width="233.203125" height="200"><defs><style type="text/css"></style></defs><path d="M644.890116 664.943377a32.62566 32.62566 0 0 0-1.336884-43.88962l-162.559413-172.884709-51.939368-51.882479c-2.673768 1.336884-4.010652 3.982208-6.684421 6.655976L85.276137 809.895742V115.711582c2.673768-18.631044 17.322604-30.606112 34.645208-30.606112h459.660562L654.21986 0H74.609508C33.308324 0 0 33.251435 0 75.804171v872.387961C0 989.436427 33.308324 1023.996302 74.609508 1023.996302h258.502178l311.77843-359.052925zM739.552885 298.665588a127.999538 127.999538 0 1 0 255.999076 0 127.999538 127.999538 0 0 0-255.999076 0z" fill="#CCCCCC" p-id="3366"></path><path d="M1118.203962 0h-255.316411c-1.365328 2.673768-2.730657 6.655976-5.461314 7.99286L789.159817 85.333025h282.622979c19.114598 0 34.13321 13.340396 35.498539 31.999885l1.365328 694.667713-273.06568-285.325192a46.705609 46.705609 0 0 0-35.498539-16.014164c-13.653284 0-23.210583 6.68442-35.498538 14.67728l-12.287956 9.329744 80.554376 83.996142c12.287956 12.003512 12.287956 30.663 1.365328 44.003396L511.998151 1023.996302h606.205811A75.718838 75.718838 0 0 0 1194.662353 947.993021V74.666397C1194.662353 33.336769 1160.529143 0 1118.203962 0z" fill="#CCCCCC" p-id="3367"></path></svg>