<?xml version="1.0" encoding="UTF-8"?>
<svg width="27px" height="27px" viewBox="0 0 27 27" version="1.1" xmlns="http://www.w3.org/2000/svg" xmlns:xlink="http://www.w3.org/1999/xlink">
    <!-- Generator: Sketch 50 (54983) - http://www.bohemiancoding.com/sketch -->
    <title>Rectangle</title>
    <desc>Created with Sketch.</desc>
    <defs></defs>
    <g id="Symbols" stroke="none" stroke-width="1" fill="none" fill-rule="evenodd">
        <g id="floatButton/smallWhite">
            <rect id="Rectangle" fill="#4191ED" x="0" y="0" width="27" height="27" rx="4"></rect>
            <path d="M9,14 L11.5,14 L8.18,17.32 L4.82,14 L7.32,14 C7.32,12.799994 7.6266636,11.6800052 8.24,10.64 C8.8266696,9.6266616 9.6266616,8.8266696 10.64,8.24 C11.6800052,7.6266636 12.799994,7.32 14,7.32 C14.6400032,7.32 15.2633303,7.4099991 15.87,7.59 C16.4766697,7.7700009 17.0399974,8.0333316 17.56,8.38 L16.34,9.58 C15.6333298,9.1933314 14.8533376,9 14,9 C13.0933288,9 12.2566705,9.2233311 11.49,9.67 C10.7233295,10.1166689 10.1166689,10.7233295 9.67,11.49 C9.2233311,12.2566705 9,13.0933288 9,14 Z M19.82,10.68 L23.18,14 L20.68,14 C20.68,15.200006 20.3733364,16.3199948 19.76,17.36 C19.1733304,18.3733384 18.3733384,19.1733304 17.36,19.76 C16.3199948,20.3733364 15.200006,20.68 14,20.68 C13.3733302,20.68 12.7533364,20.5866676 12.14,20.4 C11.5266636,20.2133324 10.9600026,19.953335 10.44,19.62 L11.66,18.42 C12.3666702,18.8066686 13.1466624,19 14,19 C14.9066712,19 15.7433295,18.7766689 16.51,18.33 C17.2766705,17.8833311 17.8833311,17.2766705 18.33,16.51 C18.7766689,15.7433295 19,14.9066712 19,14 L16.5,14 L19.82,10.68 Z" id="cached---material" fill="#FFFFFF"></path>
        </g>
    </g>
</svg>