<?xml version="1.0" encoding="UTF-8"?>
<svg width="254px" height="59px" viewBox="0 0 254 59" version="1.1" xmlns="http://www.w3.org/2000/svg" xmlns:xlink="http://www.w3.org/1999/xlink">
    <!-- Generator: Sketch 50 (54983) - http://www.bohemiancoding.com/sketch -->
    <title>下载 copy</title>
    <desc>Created with Sketch.</desc>
    <defs></defs>
    <g id="Page-1" stroke="none" stroke-width="1" fill="none" fill-rule="evenodd">
        <g id="下载-copy" fill="#2096F3" fill-rule="nonzero">
            <polygon id="Shape" points="83.0577523 22.1857309 83.0577523 44 76.7096774 44 76.7096774 22.1857309 74 22.1857309 74 16.1998837 76.7096774 16.1998837 76.7096774 6 83.0613944 6 83.0613944 16.1998837 88 16.1998837 88 22.1930981"></polygon>
            <path d="M129,16.7954545 L135.4,16.7954545 L135.4,19.4107919 C136.623241,18.0981416 137.675229,17.2101723 138.555963,16.7468839 C139.647884,16.2219513 140.846204,15.9671925 142.053211,16.0033809 C145.182263,16.0033809 147.658103,17.3932459 149.480733,20.1729759 C151.489296,17.3932459 154.209785,16.0033809 157.642201,16.0033809 C163.883179,16.0033809 167.002445,19.8553992 166.999999,27.5594359 L166.999999,44.9925276 L160.57798,44.9925276 L160.57798,29.3266567 C160.57798,26.6241414 160.255045,24.7124543 159.609173,23.5915955 C158.963302,22.4707366 157.873393,21.9015894 156.339449,21.8841538 C154.573088,21.8841538 153.287461,22.5591599 152.482568,23.9091721 C151.677675,25.2591844 151.275229,27.4311598 151.275229,30.4250984 L151.275229,44.9962638 L144.845871,44.9962638 L144.845871,29.4163254 C144.845871,24.3973685 143.424464,21.88789 140.581651,21.88789 C138.776146,21.88789 137.462385,22.5728593 136.640367,23.9427979 C135.818348,25.3127366 135.406116,27.4747488 135.403669,30.4288346 L135.403669,45 L129,45 L129,16.7954545 Z" id="Shape"></path>
            <rect id="Rectangle-path" transform="translate(248.500000, 39.500000) rotate(-37.090000) translate(-248.500000, -39.500000) " x="245" y="36" width="7" height="7"></rect>
            <path d="M27.1963248,5.79796123 C25.058628,3.76003196 22.5032166,2.23648372 19.7166926,1.33856952 C17.1524572,0.446189841 13.6600028,0 9.23932958,0 L0,0 L0,45 L6.63468358,45 L6.63468358,25.9103443 L6.63468358,6.38076537 L9.62506699,6.38076537 C15.2825491,6.38076537 19.5685204,7.75066844 22.4829809,10.4904746 C25.7109296,13.5611631 27.3249039,17.5630849 27.3249039,22.49624 C27.3249039,27.3917948 25.6913366,31.3648897 22.4242019,34.4155247 C20.8783258,35.8643482 19.0540142,36.9669867 17.0679623,37.6529078 C15.7505691,38.0548738 14.396535,38.3181862 13.0269036,38.4387533 L13.0269036,44.857119 C15.2046554,44.753187 17.3615241,44.3743154 19.4485132,43.729111 C22.2144213,42.7964367 24.7568995,41.2768674 26.909777,39.2697193 C31.6390402,35.0083556 34.0024472,29.4121825 33.9999981,22.4811999 C33.997549,15.5502173 31.7296579,9.98913771 27.1963248,5.79796123 Z" id="Shape"></path>
            <path d="M62.3858986,16.7891373 L62.3858986,20.0849533 C59.747817,17.3635223 56.7695816,16.0028068 53.4511925,16.0028068 C49.77215,15.9246633 46.2492623,17.4816054 43.8399583,20.2504966 C41.2825056,23.0898145 40.0025198,26.6377078 40,30.8941765 C40,35.2309086 41.2799862,38.8465242 43.8399583,41.7410231 C46.4175681,44.5803412 49.679265,46 53.6250489,46 C54.3614308,45.9967313 55.0956909,45.9211175 55.817151,45.7742592 L55.817151,40.0103435 C55.3576384,40.0893561 54.8925764,40.1321287 54.4263,40.1382633 C52.2750866,40.1742719 50.2286496,39.2154464 48.8855728,37.5422438 C47.4569269,35.83163 46.7426039,33.6156075 46.7426039,30.8941765 C46.7426039,28.3483216 47.4758243,26.2100544 48.9422651,24.4793747 C50.2984284,22.8284933 52.3371148,21.8837296 54.4792128,21.913454 C56.6719919,21.8459728 58.7754689,22.7799995 60.1900169,24.4492759 C61.6488987,26.1724309 62.3808594,28.3583546 62.3858986,31.0070469 L62.3858986,45.1835707 L69,45.1835707 L69,16.7891373 L62.3858986,16.7891373 Z" id="Shape"></path>
            <path d="M115.382981,16.7891373 L115.382981,20.0849533 C112.745244,17.3635223 109.767396,16.0028068 106.44944,16.0028068 C102.770877,15.9246633 99.2484479,17.4816054 96.8394579,20.2504966 C94.2823385,23.0898145 93.0025195,26.6377078 93,30.8941765 C93,35.2309086 94.2798194,38.8465242 96.8394579,41.7410231 C99.4167318,44.5803412 102.678004,46 106.623273,46 C107.359559,45.9967313 108.093724,45.9211175 108.81509,45.7742592 L108.81509,40.0103435 C108.355637,40.0893561 107.890636,40.1321287 107.42442,40.1382633 C105.273487,40.1742719 103.227317,39.2154464 101.884415,37.5422438 C100.455955,35.83163 99.7417253,33.6156075 99.7417253,30.8941765 C99.7417253,28.3483216 100.47485,26.2100544 101.9411,24.4793747 C103.297915,22.8274516 105.337968,21.8825764 107.481105,21.913454 C109.673598,21.8459728 111.776801,22.7799995 113.191165,24.4492759 C114.649857,26.1724309 115.381722,28.3583546 115.38676,31.0070469 L115.38676,45.1835707 L122,45.1835707 L122,16.7891373 L115.382981,16.7891373 Z" id="Shape"></path>
            <path d="M196.379203,16.79971 L196.379203,20.0943332 C193.743984,17.3688725 190.763617,16.0048885 187.438103,16.0023811 C183.761636,15.9304626 180.243748,17.490806 177.839458,20.2598165 C175.282339,23.0981068 174.002519,26.6447159 174,30.899644 C174,35.2348064 175.279819,38.8491134 177.839458,41.7425646 C180.416732,44.580855 183.678004,46 187.623273,46 C188.359559,45.9967325 189.093724,45.9211461 189.81509,45.7743409 L189.81509,40.0125114 C189.355637,40.0914955 188.890636,40.1342526 188.42442,40.1403849 C186.273487,40.1763805 184.227317,39.2179021 182.884415,37.545305 C181.455955,35.8353103 180.741725,33.62009 180.741725,30.899644 C180.741725,28.3547106 181.47485,26.2172172 182.9411,24.487164 C184.297915,22.8358388 186.337968,21.8913056 188.481105,21.922172 C190.673598,21.8547152 192.776801,22.7884039 194.191165,24.4570761 C195.649857,26.1796074 196.381722,28.3647399 196.38676,31.0124735 L196.38676,45.1838662 L203,45.1838662 L203,16.79971 L196.379203,16.79971 Z" id="Shape"></path>
            <path d="M236.130814,20.1594422 C233.715288,17.4382905 230.145641,15.910773 226.420065,16.0040351 C223.120174,16.0040351 220.171683,17.2490873 217.574593,19.7391918 L217.574593,16.7720789 L211,16.7720789 L211,59 L217.589707,59 L217.589707,50.0660558 L217.589707,30.4519545 C217.589707,27.899054 218.322736,25.8376532 219.788795,24.2677523 C221.243849,22.7018979 223.349868,21.8376375 225.535896,21.909278 C227.677755,21.8685855 229.72178,22.7677823 231.086515,24.3510778 C232.537459,25.9596225 233.262932,28.0439679 233.262932,30.6041142 C233.262932,33.0193464 232.518567,35.0300273 231.029837,36.6361568 C229.67032,38.2062286 227.637239,39.0948347 225.509446,39.0489738 C225.058533,39.0421994 224.608828,39.0022307 224.1643,38.9294198 L224.1643,44.6680117 C224.951077,44.8246586 225.75253,44.903566 226.556091,44.9034968 C230.23033,44.9847269 233.751248,43.4920108 236.161042,40.8314152 C238.717829,38.0973722 239.997481,34.6810262 240,30.5823771 C239.997481,26.3871186 238.707752,22.912807 236.130814,20.1594422 Z" id="Shape"></path>
        </g>
    </g>
</svg>