<?xml version="1.0" encoding="UTF-8"?>
<svg width="31px" height="31px" viewBox="0 0 31 31" version="1.1" xmlns="http://www.w3.org/2000/svg" xmlns:xlink="http://www.w3.org/1999/xlink">
    <!-- Generator: Sketch 50 (54983) - http://www.bohemiancoding.com/sketch -->
    <title>Icon Copy 3</title>
    <desc>Created with Sketch.</desc>
    <defs></defs>
    <g id="Symbols" stroke="none" stroke-width="1" fill="none" fill-rule="evenodd">
        <g id="Overrides/Cell/Cell-Icon/Location" transform="translate(1.000000, 1.000000)">
            <path d="M18.2956473,9.23828125 C17.4284555,8.37108941 16.3620599,7.9375 15.0964286,7.9375 C13.8307973,7.9375 12.7644017,8.37108941 11.8972098,9.23828125 C11.030018,10.1054731 10.5964286,11.1718687 10.5964286,12.4375 C10.5964286,13.9843827 11.4167329,16.1640484 13.0573661,18.9765625 C13.8308075,20.3125067 14.5104882,21.3789023 15.0964286,22.1757812 C15.682369,21.3789023 16.3620497,20.3125067 17.1354911,18.9765625 C18.7761243,16.1640484 19.5964286,13.9843827 19.5964286,12.4375 C19.5964286,11.1718687 19.1628392,10.1054731 18.2956473,9.23828125 Z M11.5104911,8.8515625 C12.494871,7.86718258 13.6901716,7.375 15.0964286,7.375 C16.5026856,7.375 17.6979862,7.86718258 18.6823661,8.8515625 C19.666746,9.83594242 20.1589286,11.031243 20.1589286,12.4375 C20.1589286,13.6093809 19.7370578,15.0859286 18.8933036,16.8671875 C18.0495494,18.6484464 17.2058078,20.1367128 16.3620536,21.3320312 L15.0964286,23.125 C14.7214267,22.6093724 14.2526814,21.9472697 13.6901786,21.1386719 C13.1276758,20.3300741 12.3776833,18.9707127 11.4401786,17.0605469 C10.5026739,15.1503811 10.0339286,13.6093809 10.0339286,12.4375 C10.0339286,11.031243 10.5261112,9.83594242 11.5104911,8.8515625 Z M13.5143973,10.8554688 C13.9597121,10.410154 14.4870506,10.1875 15.0964286,10.1875 C15.7058066,10.1875 16.2331451,10.410154 16.6784598,10.8554688 C17.1237746,11.3007835 17.3464286,11.828122 17.3464286,12.4375 C17.3464286,13.046878 17.1237746,13.5742165 16.6784598,14.0195312 C16.2331451,14.464846 15.7058066,14.6875 15.0964286,14.6875 C14.4870506,14.6875 13.9597121,14.464846 13.5143973,14.0195312 C13.0690826,13.5742165 12.8464286,13.046878 12.8464286,12.4375 C12.8464286,11.828122 13.0690826,11.3007835 13.5143973,10.8554688 Z M13.9011161,13.6328125 C14.2292427,13.9375015 14.6276763,14.0898438 15.0964286,14.0898438 C15.5651809,14.0898438 15.9577551,13.9316422 16.274163,13.6152344 C16.5905708,13.2988265 16.7487723,12.9062523 16.7487723,12.4375 C16.7487723,11.9687477 16.5905708,11.5761735 16.274163,11.2597656 C15.9577551,10.9433578 15.5651809,10.7851562 15.0964286,10.7851562 C14.6276763,10.7851562 14.2351021,10.9433578 13.9186942,11.2597656 C13.6022864,11.5761735 13.4440848,11.9687477 13.4440848,12.4375 C13.4440848,12.9062523 13.5964271,13.3046859 13.9011161,13.6328125 Z" id="ion-ios-location-outline---Ionicons" fill="#007AFF"></path>
            <rect id="Icon-Copy-3" stroke="#DEDEDE" stroke-width="0.3" x="0" y="0" width="29" height="29" rx="6.5"></rect>
        </g>
    </g>
</svg>