<?xml version="1.0" encoding="UTF-8"?>
<svg width="22px" height="22px" viewBox="0 0 22 22" version="1.1" xmlns="http://www.w3.org/2000/svg" xmlns:xlink="http://www.w3.org/1999/xlink">
    <!-- Generator: Sketch 50 (54983) - http://www.bohemiancoding.com/sketch -->
    <title>Health Data Copy</title>
    <desc>Created with Sketch.</desc>
    <defs></defs>
    <g id="Symbols" stroke="none" stroke-width="1" fill="none" fill-rule="evenodd">
        <path d="M0,1.99961498 C0,0.895258123 0.88743329,0 1.99961498,0 L8.00038502,0 C9.10474188,0 10,0.88743329 10,1.99961498 L10,8.00038502 C10,9.10474188 9.11256671,10 8.00038502,10 L1.99961498,10 C0.895258123,10 0,9.11256671 0,8.00038502 L0,1.99961498 Z M12,1.99961498 C12,0.895258123 12.8874333,0 13.999615,0 L20.000385,0 C21.1047419,0 22,0.88743329 22,1.99961498 L22,8.00038502 C22,9.10474188 21.1125667,10 20.000385,10 L13.999615,10 C12.8952581,10 12,9.11256671 12,8.00038502 L12,1.99961498 Z M12,13.999615 C12,12.8952581 12.8874333,12 13.999615,12 L20.000385,12 C21.1047419,12 22,12.8874333 22,13.999615 L22,20.000385 C22,21.1047419 21.1125667,22 20.000385,22 L13.999615,22 C12.8952581,22 12,21.1125667 12,20.000385 L12,13.999615 Z M0,13.999615 C0,12.8952581 0.88743329,12 1.99961498,12 L8.00038502,12 C9.10474188,12 10,12.8874333 10,13.999615 L10,20.000385 C10,21.1047419 9.11256671,22 8.00038502,22 L1.99961498,22 C0.895258123,22 0,21.1125667 0,20.000385 L0,13.999615 Z" id="Health-Data-Copy" fill="#007AFF"></path>
    </g>
</svg>