<?xml version="1.0" encoding="UTF-8"?>
<svg width="24px" height="20px" viewBox="0 0 24 20" version="1.1" xmlns="http://www.w3.org/2000/svg" xmlns:xlink="http://www.w3.org/1999/xlink">
    <!-- Generator: Sketch 50 (54983) - http://www.bohemiancoding.com/sketch -->
    <title>Group Copy</title>
    <desc>Created with Sketch.</desc>
    <defs></defs>
    <g id="Page-1" stroke="none" stroke-width="1" fill="none" fill-rule="evenodd">
        <g id="Group-Copy" fill="#007AFF">
            <path d="M7.86558277,0.642824288 L7.86558277,16.2970018 C7.86558277,16.4197387 7.94034676,16.5300964 8.05433238,16.5756115 L14.8471983,19.2880406 C15.0010702,19.3494825 15.1756165,19.2745532 15.2370584,19.1206813 C15.2511892,19.0852928 15.2584487,19.0475363 15.2584487,19.0094309 L15.2584487,3.3552534 C15.2584487,3.23251651 15.1836847,3.12215882 15.0696991,3.07664373 L8.27683316,0.364214613 C8.12296129,0.302772719 7.94841499,0.377702023 7.8869731,0.531573897 C7.87284229,0.566962345 7.86558277,0.604718883 7.86558277,0.642824288 Z" id="Path"></path>
            <path d="M0.0620020394,3.24805445 L0.0620020394,18.9023228 C0.0620020394,19.0680082 0.196316614,19.2023228 0.362002039,19.2023228 C0.400071887,19.2023228 0.437793851,19.1950768 0.473154249,19.1809717 L6.85530543,16.6351503 C6.96934289,16.5896611 7.04415322,16.4792769 7.04415322,16.3565015 L7.04415322,0.702233117 C7.04415322,0.536547692 6.90983864,0.402233117 6.74415322,0.402233117 C6.70608337,0.402233117 6.66836141,0.4094791 6.63300101,0.423584259 L0.250849829,2.96940559 C0.136812369,3.0148948 0.0620020394,3.125279 0.0620020394,3.24805445 Z" id="Path"></path>
            <path d="M23.0620295,16.3969246 L23.0620295,0.742656218 C23.0620295,0.576970793 22.9277149,0.442656218 22.7620295,0.442656218 C22.7239596,0.442656218 22.6862376,0.449902201 22.6508772,0.46400736 L16.2687261,3.00982869 C16.1546886,3.0553179 16.0798783,3.16570211 16.0798783,3.28847755 L16.0798783,18.9427459 C16.0798783,19.1084313 16.2141929,19.2427459 16.3798783,19.2427459 C16.4179481,19.2427459 16.4556701,19.2354999 16.4910305,19.2213948 L22.8731817,16.6755734 C22.9872191,16.6300842 23.0620295,16.5197 23.0620295,16.3969246 Z" id="Path"></path>
        </g>
    </g>
</svg>