<?xml version="1.0" encoding="UTF-8"?>
<svg width="25px" height="25px" viewBox="0 0 25 25" version="1.1" xmlns="http://www.w3.org/2000/svg" xmlns:xlink="http://www.w3.org/1999/xlink">
    <!-- Generator: Sketch 50 (54983) - http://www.bohemiancoding.com/sketch -->
    <title>Icon Copy</title>
    <desc>Created with Sketch.</desc>
    <defs></defs>
    <g id="Symbols" stroke="none" stroke-width="1" fill="none" fill-rule="evenodd">
        <g id="Icon-Copy" fill="#007AFF">
            <path d="M12.5,0 C19.404,0 25,5.596 25,12.5 C25,19.404 19.404,25 12.5,25 C5.597,25 0,19.404 0,12.5 C0,5.596 5.597,0 12.5,0 Z M19.4426,21.6369 C19.4306,21.5469 19.4036,21.4669 19.3406,21.4149 C18.4236,20.6559 16.6166,21.0209 15.9466,20.4279 C15.0026,19.5899 15.2846,17.2279 15.2846,17.2279 C15.2846,17.2279 15.9146,16.7209 15.9656,16.1649 C16.0066,15.7249 16.2236,14.2899 16.2236,14.2899 C16.2236,14.2899 16.5816,14.0329 16.7786,13.7899 C17.0386,13.4699 16.9036,12.9149 16.9656,12.6029 C17.0286,12.2899 17.6536,11.6649 17.4036,11.1649 C17.1536,10.6649 16.9116,10.7279 16.9116,10.7279 C16.9116,10.7279 17.4456,8.6629 17.2156,7.2279 C17.1146,6.5979 16.6226,5.4699 15.7706,4.8449 C15.0926,4.3469 14.2156,3.9519 12.7156,3.9519 L12.3176,3.9519 C10.8176,3.9519 9.9416,4.3469 9.2626,4.8449 C8.4106,5.4699 7.9186,6.5979 7.8176,7.2279 C7.5876,8.6629 8.1216,10.7279 8.1216,10.7279 C8.1216,10.7279 7.8796,10.6649 7.6296,11.1649 C7.3796,11.6649 8.0046,12.2899 8.0676,12.6029 C8.1296,12.9149 7.9946,13.4699 8.2546,13.7899 C8.4516,14.0329 8.8096,14.2899 8.8096,14.2899 C8.8096,14.2899 9.0266,15.7249 9.0676,16.1649 C9.1186,16.7209 9.7486,17.2279 9.7486,17.2279 C9.7486,17.2279 10.0306,19.5899 9.0866,20.4279 C8.4176,21.0209 6.6096,20.6559 5.6926,21.4149 C5.6246,21.4709 5.5856,21.5569 5.5576,21.6559 C7.4876,23.1199 9.8836,23.9999 12.4876,23.9999 C15.1026,23.9999 17.5086,23.1129 19.4426,21.6369 Z" id="Combined-Shape"></path>
        </g>
    </g>
</svg>