<?xml version="1.0" encoding="UTF-8"?>
<svg width="25px" height="26px" viewBox="0 0 25 26" version="1.1" xmlns="http://www.w3.org/2000/svg" xmlns:xlink="http://www.w3.org/1999/xlink">
    <!-- Generator: Sketch 50 (54983) - http://www.bohemiancoding.com/sketch -->
    <title>Page 1 Copy</title>
    <desc>Created with Sketch.</desc>
    <defs></defs>
    <g id="Symbols" stroke="none" stroke-width="1" fill="none" fill-rule="evenodd">
        <g id="Page-1-Copy">
            <path d="M12.5,0 C5.597,0 0,5.596 0,12.5 C0,19.404 5.597,25 12.5,25 C19.404,25 25,19.404 25,12.5 C25,5.596 19.404,0 12.5,0 M12.5,1 C18.841,1 24,6.159 24,12.5 C24,18.841 18.841,24 12.5,24 C6.159,24 1,18.841 1,12.5 C1,6.159 6.159,1 12.5,1" id="Fill-1" fill="#8C8C8C"></path>
            <path d="M19.4426,22.185 C19.4306,22.095 19.4036,22.015 19.3406,21.963 C18.4236,21.204 16.6166,21.569 15.9466,20.976 C15.0026,20.138 15.2846,17.776 15.2846,17.776 C15.2846,17.776 15.9146,17.269 15.9656,16.713 C16.0066,16.273 16.2236,14.838 16.2236,14.838 C16.2236,14.838 16.5816,14.581 16.7786,14.338 C17.0386,14.018 16.9036,13.463 16.9656,13.151 C17.0286,12.838 17.6536,12.213 17.4036,11.713 C17.1536,11.213 16.9116,11.276 16.9116,11.276 C16.9116,11.276 17.4456,9.211 17.2156,7.776 C17.1146,7.146 16.6226,6.018 15.7706,5.393 C15.0926,4.895 14.2156,4.5 12.7156,4.5 L12.3176,4.5 C10.8176,4.5 9.9416,4.895 9.2626,5.393 C8.4106,6.018 7.9186,7.146 7.8176,7.776 C7.5876,9.211 8.1216,11.276 8.1216,11.276 C8.1216,11.276 7.8796,11.213 7.6296,11.713 C7.3796,12.213 8.0046,12.838 8.0676,13.151 C8.1296,13.463 7.9946,14.018 8.2546,14.338 C8.4516,14.581 8.8096,14.838 8.8096,14.838 C8.8096,14.838 9.0266,16.273 9.0676,16.713 C9.1186,17.269 9.7486,17.776 9.7486,17.776 C9.7486,17.776 10.0306,20.138 9.0866,20.976 C8.4176,21.569 6.6096,21.204 5.6926,21.963 C5.6246,22.019 5.5856,22.105 5.5576,22.204 C7.4876,23.668 9.8836,24.548 12.4876,24.548 C15.1026,24.548 17.5086,23.661 19.4426,22.185" id="Fill-3" stroke="#8C8C8C"></path>
        </g>
    </g>
</svg>